<svg id="Layer_1" data-name="Layer 1" xmlns="http://www.w3.org/2000/svg" xmlns:xlink="http://www.w3.org/1999/xlink" viewBox="0 0 1920 1080"><defs><style>.cls-1,.cls-10,.cls-11,.cls-12,.cls-13,.cls-14,.cls-15,.cls-16,.cls-17,.cls-18,.cls-19,.cls-2,.cls-20,.cls-21,.cls-22,.cls-23,.cls-24,.cls-25,.cls-26,.cls-27,.cls-28,.cls-29,.cls-3,.cls-30,.cls-4,.cls-5,.cls-6,.cls-7,.cls-8,.cls-9{fill:none;stroke-linecap:round;stroke-linejoin:round;stroke-width:2px;}.cls-1{stroke:url(#linear-gradient);}.cls-2{stroke:url(#linear-gradient-2);}.cls-3{stroke:url(#linear-gradient-3);}.cls-4{stroke:url(#linear-gradient-4);}.cls-5{stroke:url(#linear-gradient-5);}.cls-6{stroke:url(#linear-gradient-6);}.cls-7{stroke:url(#linear-gradient-7);}.cls-8{stroke:url(#linear-gradient-8);}.cls-9{stroke:url(#linear-gradient-9);}.cls-10{stroke:url(#linear-gradient-10);}.cls-11{stroke:url(#linear-gradient-11);}.cls-12{stroke:url(#linear-gradient-12);}.cls-13{stroke:url(#linear-gradient-13);}.cls-14{stroke:url(#linear-gradient-14);}.cls-15{stroke:url(#linear-gradient-15);}.cls-16{stroke:url(#linear-gradient-16);}.cls-17{stroke:url(#linear-gradient-17);}.cls-18{stroke:url(#linear-gradient-18);}.cls-19{stroke:url(#linear-gradient-19);}.cls-20{stroke:url(#linear-gradient-20);}.cls-21{stroke:url(#linear-gradient-21);}.cls-22{stroke:url(#linear-gradient-22);}.cls-23{stroke:url(#linear-gradient-23);}.cls-24{stroke:url(#linear-gradient-24);}.cls-25{stroke:url(#linear-gradient-25);}.cls-26{stroke:url(#linear-gradient-26);}.cls-27{stroke:url(#linear-gradient-27);}.cls-28{stroke:url(#linear-gradient-28);}.cls-29{stroke:url(#linear-gradient-29);}.cls-30{stroke:url(#linear-gradient-30);}</style><linearGradient id="linear-gradient" x1="525.02" y1="458.6" x2="866.81" y2="458.6" gradientUnits="userSpaceOnUse"><stop offset="0" stop-color="#faa950"/><stop offset="1" stop-color="#dd6938"/></linearGradient><linearGradient id="linear-gradient-2" x1="594.38" y1="597.51" x2="700.8" y2="597.51" xlink:href="#linear-gradient"/><linearGradient id="linear-gradient-3" x1="1014.4" y1="734.06" x2="1031.66" y2="734.06" xlink:href="#linear-gradient"/><linearGradient id="linear-gradient-4" x1="977.01" y1="495.26" x2="1146.05" y2="495.26" xlink:href="#linear-gradient"/><linearGradient id="linear-gradient-5" x1="823.33" y1="372.63" x2="990.76" y2="372.63" xlink:href="#linear-gradient"/><linearGradient id="linear-gradient-6" x1="684.2" y1="653.34" x2="691.28" y2="653.34" xlink:href="#linear-gradient"/><linearGradient id="linear-gradient-7" x1="846.77" y1="151.32" x2="1069.67" y2="151.32" xlink:href="#linear-gradient"/><linearGradient id="linear-gradient-8" x1="892.85" y1="104.76" x2="991.25" y2="104.76" xlink:href="#linear-gradient"/><linearGradient id="linear-gradient-9" x1="991.49" y1="117.41" x2="1027.09" y2="117.41" xlink:href="#linear-gradient"/><linearGradient id="linear-gradient-10" x1="871.13" y1="281.39" x2="1033.13" y2="281.39" xlink:href="#linear-gradient"/><linearGradient id="linear-gradient-11" x1="1037.59" y1="767.34" x2="1103.63" y2="767.34" xlink:href="#linear-gradient"/><linearGradient id="linear-gradient-12" x1="407.35" y1="704.51" x2="1094.64" y2="704.51" xlink:href="#linear-gradient"/><linearGradient id="linear-gradient-13" x1="388.7" y1="762.24" x2="435.3" y2="762.24" xlink:href="#linear-gradient"/><linearGradient id="linear-gradient-14" x1="410" y1="737.53" x2="469.55" y2="737.53" xlink:href="#linear-gradient"/><linearGradient id="linear-gradient-15" x1="405.61" y1="697.49" x2="469.89" y2="697.49" xlink:href="#linear-gradient"/><linearGradient id="linear-gradient-16" x1="1226.44" y1="278.87" x2="1474.11" y2="278.87" xlink:href="#linear-gradient"/><linearGradient id="linear-gradient-17" x1="1263.78" y1="279.26" x2="1443.93" y2="279.26" xlink:href="#linear-gradient"/><linearGradient id="linear-gradient-18" x1="1266.48" y1="428.9" x2="1446.39" y2="428.9" xlink:href="#linear-gradient"/><linearGradient id="linear-gradient-19" x1="1460.4" y1="449.43" x2="1588.54" y2="449.43" xlink:href="#linear-gradient"/><linearGradient id="linear-gradient-20" x1="1091.31" y1="889.67" x2="1884.71" y2="889.67" xlink:href="#linear-gradient"/><linearGradient id="linear-gradient-21" x1="1141.42" y1="677.96" x2="1255.98" y2="677.96" xlink:href="#linear-gradient"/><linearGradient id="linear-gradient-22" x1="1408.84" y1="482.61" x2="1481.27" y2="482.61" xlink:href="#linear-gradient"/><linearGradient id="linear-gradient-23" x1="1192.06" y1="758.24" x2="1432.19" y2="758.24" xlink:href="#linear-gradient"/><linearGradient id="linear-gradient-24" x1="1248.15" y1="815.31" x2="1499.27" y2="815.31" xlink:href="#linear-gradient"/><linearGradient id="linear-gradient-25" x1="1402.51" y1="786.58" x2="1527.69" y2="786.58" xlink:href="#linear-gradient"/><linearGradient id="linear-gradient-26" x1="1197.66" y1="743.2" x2="1310.47" y2="743.2" xlink:href="#linear-gradient"/><linearGradient id="linear-gradient-27" x1="1171.63" y1="665.85" x2="1391.59" y2="665.85" xlink:href="#linear-gradient"/><linearGradient id="linear-gradient-28" x1="1296.15" y1="509.99" x2="1303.89" y2="509.99" xlink:href="#linear-gradient"/><linearGradient id="linear-gradient-29" x1="1252.89" y1="642.38" x2="1599.82" y2="642.38" xlink:href="#linear-gradient"/><linearGradient id="linear-gradient-30" x1="35.29" y1="874.25" x2="837.03" y2="874.25" xlink:href="#linear-gradient"/></defs><path class="cls-1" d="M526,638.65C538.39,611.19,589.22,519,589.22,519s56.2-88.25,90.13-116.7a410,410,0,0,1,47.45-34.17,104.92,104.92,0,0,1,34.09-13.5c27-5.53,76.3-20.12,87.15-31.6,15.75-16.67,17.77-44.47,17.77-44.47"/><path class="cls-2" d="M595.38,509.5c20.33-11,115.91,31.24,103.27,62.66S620.51,687.3,620.51,687.3"/><path class="cls-3" d="M1030.66,632.29S1006,791.14,1019.37,835.83"/><path class="cls-4" d="M979.62,315.39s-6.37,37.05,6.22,52.08c7.47,8.92,22,14.63,32.34,18.56,80.41,30.68,108,84.34,111.52,94.83,12.53,37,12.52,66.41,14.45,105.39.95,19.08,1.95,37-1.48,55.81-1.23,6.7-6.52,12.08-12.59,15.15s-12.91,4.21-19.63,5.3c-17.64,2.87-69.24,13.46-71.86,12.57s-12.69-10.75-12.09-13.45"/><path class="cls-5" d="M824.33,335.69c4.44,26.43,25.11,47.78,48.78,60.35,19.54,10.38,42.15,15.92,64,12.55s42.69-16.45,52.63-36.22"/><path class="cls-6" d="M690,589.08c1.89,44.2-5.42,128.33-4.72,128.53"/><path class="cls-7" d="M865.81,278.54,865.57,239c0-2.62-.09-5.42-1.59-7.56-4-5.67-9.64-10.69-12.37-17.05-2.81-6.53-3.09-13.84-3.32-20.94l-.4-11.76c-.23-7.09-.43-14.44,2.35-21,1-2.21,2.58-4.53,5-4.74a6.29,6.29,0,0,1,3.95,1.34,21,21,0,0,1,6.34,7.46,33,33,0,0,1,3.54,20.77,11.87,11.87,0,0,0-.25,3.75,3.16,3.16,0,0,0,2.31,2.68c1.45-4.6.46-9.55-.35-14.31A177,177,0,0,1,868.28,150c0-1.13,3.47,1.15,4.87,2.7,20.39,22.52,48.07,37.25,76.57,47.76,18.57,6.85,37.78,12.13,57.43,14.5,16.39,2,34.56,1.41,47.25-9.16,3.16-2.63,6-7.16,3.73-10.59-1.69-2.56-5.24-2.89-8.31-3a478.71,478.71,0,0,1-94.19-12.74,186.92,186.92,0,0,1-23.68-7,116,116,0,0,1-28.33-15.71c-9.33-7-17.53-15.46-25.7-23.83-2.54-2.61-5.14-5.29-6.72-8.58-2.36-4.89-2.25-10.66-4.37-15.66-1-2.42-2.6-4.75-2.57-7.38A6.62,6.62,0,0,1,872,95.3c10.39-35.95,42.71-65.11,79.67-71,5.9-.94,27.61,1.68,32.28,3.46,19.2,7.3,36.63,18.9,51.58,33,6.5,6.11,12.61,12.78,16.87,20.62,4,7.44,6.28,15.7,8.17,24a322.66,322.66,0,0,1,7.87,83.47,29.47,29.47,0,0,1-.79,6.76c-1,3.64-10.14,8.2-13.27,10.29"/><path class="cls-8" d="M893.85,136.94l15-21.71a9.58,9.58,0,0,1,3.58-3.57,6.45,6.45,0,0,1,4.12-.21c5.78,1.4,9.21,7.8,9.21,13.75s-2.62,11.56-5.18,16.93l-4.86,10.18c1.36,2.76,4.49,4.09,7.37,5.19l17.32,6.64c9.43-13,10.77-29.08,13.47-44.87.45-2.61,1-5.33,2.66-7.37,2.64-3.21,7.31-3.8,11.46-3.62s8.48.9,12.36-.59c4-1.54,6.94-5.28,8.37-9.35s1.58-8.48,1.48-12.8a118.09,118.09,0,0,0-8.09-40.16"/><path class="cls-9" d="M992.49,46.85a109.89,109.89,0,0,1,12.54,64c-.75,6.82,6,10.94,10.59,16.07,3.53,4,7.68,7.69,9.41,12.72,1.17,3.37,1.13,7,1,10.59a258.19,258.19,0,0,1-4.16,37.71"/><path class="cls-10" d="M872.13,287.41c10.26,18.27,18.5,33.4,35.15,46.12a77.47,77.47,0,0,0,25.08,12.71c3.88,1.14,8,2,11.93,1,3.52-.92,6.5-3.25,9.29-5.59a205.67,205.67,0,0,0,54.47-71.39c2.33-5.08,4.5-10.33,7.94-14.74s7.94-7.76,10.94-12.4c4.64-7.15,5-19.43,5.2-28"/><path class="cls-11" d="M1038.59,675.08c5.68,61.19,38,128.87,64,184.52"/><path class="cls-12" d="M416,652.18c-4.34-17.81-8.71-35.95-7.48-54.23s8.94-37.06,24.2-47.21c2.47,11.93,5.09,24.2,11.87,34.33,7.92,11.83,20.63,19.43,33,26.52a2371.26,2371.26,0,0,0,616,246.68"/><path class="cls-13" d="M434.3,857.07c-1.42-5-4.08-9.67-5.53-14.71-5.89-20.57,9.37-43.22,2.21-63.38-6.12-17.24-26.12-25.53-35.45-41.27-6.4-10.79-7.11-24.26-4.19-36.46s9.16-23.34,16-33.83"/><path class="cls-14" d="M411,719c-.37,4.86,3.1,9.16,6.9,12.21,6.83,5.49,15.25,8.7,23.82,10.54s17.35,2.38,26.08,3c.29,0,.65.1.73.38s-1.7,8.18-6,9.75a22.11,22.11,0,0,1-6.27,1,115.62,115.62,0,0,1-41.67-5.35"/><path class="cls-15" d="M468.87,737c.34-5.22-4.14-9.65-9-11.51s-10.25-1.88-15.38-2.85a42.53,42.53,0,0,1-26.81-17.5,2.43,2.43,0,0,1-.34-1.66c1.92-.71,3.49,1.54,4.65,3.23a14.54,14.54,0,0,0,11.89,6.19,4.52,4.52,0,0,0,2-.37,4.15,4.15,0,0,0,1.7-2c2.88-6-.56-12.88-3.62-18.76A177.28,177.28,0,0,1,423.69,668a24.41,24.41,0,0,0-3-6.65A7.58,7.58,0,0,0,414.5,658a7.49,7.49,0,0,0-5.83,4.12,22,22,0,0,0-2.06,7.12"/><path class="cls-16" d="M1468.58,334c.65,6.37-4.41,12.19-10.32,14.65s-12.52,2.37-18.93,2.44C1378,351.77,1316,371,1256,357.83c-6.81-1.49-13.71-3.48-19.32-7.62s-9.79-10.84-9.23-17.8c1.31-16.22,25.24-23.16,26.72-39.36,2.46-26.89,21.74-50.51,40.37-70.05,14.37-15.07,34.61-23.72,55.23-26.64a87.19,87.19,0,0,1,25.45-.19c23.09,3.58,42.6,18.69,59.9,34.39,4.85,4.4,9.68,9,13.06,14.58,5.5,9.14,6.7,20.3,11.66,29.74,3.55,6.74,8.95,12.48,11.72,19.57C1476.68,307.45,1467.17,320.09,1468.58,334Z"/><path class="cls-17" d="M1278,334.7c-5.3-1.76-11.22-4.34-12.82-9.69-1.18-3.91.4-8.06,2-11.83,12.07-28.68,25.07-55,42.85-76.4,13.72-16.52,23.87-29.14,52.41-15.72,2.3,1.08,4.67,2.4,5.94,4.6,3,5.19-1.59,11.31-5.58,15.76-21.17,23.6-2.18,47.62-5.08,79.19-.37,4-.54,8.3,1.27,11.93,3.24,6.51,11.4,8.6,18.62,9.46a157,157,0,0,0,65.33-6"/><path class="cls-18" d="M1384.07,355.32c5.06-1.25,13,1.69,17.31,4.65,3.65,2.53,5,7.31,5.16,11.75s-.63,8.9-.09,13.31,3.9,9.38,8.17,8.31a9.4,9.4,0,0,0,3.76-2.36l10.15-8.88c2.22-1.94,4.52-3.92,7.33-4.83s6.26-.44,8.07,1.89c1.38,1.77,1.53,4.18,1.43,6.43-.58,12.77-10.9,29.28-22.18,35.29-7.8,4.16-6.87,6.49-12.4,13.39-4.51,5.63-13.41,18-16.2,24.61-7,16.66-22.71,25.87-38.15,35.24s-34.2,13.37-46.73.37a64.12,64.12,0,0,1-7.13-9.55l-15.7-24.05c-5.35-8.2-10.75-16.49-14.24-25.64-8.85-23.22-4.53-49.12-.1-73.56"/><path class="cls-19" d="M1461.4,349.14A119.84,119.84,0,0,1,1473,397.6c.41,16.25-2.49,32.47-1.66,48.7s6.24,33.42,19.41,42.95c10.17,7.36,23.24,9,35.15,13a14.22,14.22,0,0,1,6.08,3.33c2.8,3,2.79,7.51,3.53,11.52,2,10.82,10.4,19.62,20.2,24.62s20.89,6.75,31.82,8"/><path class="cls-20" d="M1092.31,858c20.81,4.95,42.59,3.65,63.63-.25,7.24-1.34,14.66-2.75,21-6.57,10.33-6.28,15.92-17.94,20.83-29,1.53-3.45,3.24-7.12,6.49-9,4.16-2.44,9.71-1.13,13.5,1.86s6.22,7.33,8.55,11.56q29.41,53.46,58.85,106.91s34.15,45.14,105.48,31.53,146.16-96.6,263.17-54.42,194.57,44.9,230,16.33"/><path class="cls-21" d="M1194.89,810.42a4.14,4.14,0,0,1-1.29-1.51c-2.71-7.46-6.1-14.58-9.15-22-8.48-21-17.63-41.35-26.44-62.37-2.71-6.1-5.76-11.86-8.48-17.63-4.74-10.5-9.83-22-5.42-33.22,3.05-7.45,11.52-8.47,18.64-10.16,4.07-.68,7.12-3.06,9.49-6.45,6.45-9.15,8.14-19.66,10.85-30.16,4.07-13.9,8.82-27.12,15.93-40,1-1.7,14.4-30.26,54.58-40,0-1,.68-1,1.38-1.38"/><path class="cls-22" d="M1480.27,513.25c-7.84-10.86-12.3-23.76-19-35.35a103.55,103.55,0,0,0-22.66-27.14c-4.17-3.53-9.25-6.9-14.65-6.11-8.41,1.24-12,11.17-13.9,19.44,0,0-2.93,24.2,13.52,38.68S1456,520.69,1456,520.69"/><path class="cls-23" d="M1199.15,718.74c-6.08,19.46-9.06,40.89-2,60,1.84,5,4.43,9.79,8.49,13.16,4.36,3.62,10.07,5.25,15.72,5.69,8.17.65,16.33-1,24.34-2.72a1186.83,1186.83,0,0,0,185.47-56"/><path class="cls-24" d="M1249.15,851.2c68.87-1.63,127.56-.08,192.75-10,4.11-.63,8.16-1,12.06-2.46,11.14-4.06,19.13-10.62,21-13.93q12.6-22.22,23.3-45.43"/><path class="cls-25" d="M1403.51,747c6.34-24.12,27.82-43.53,52.46-47.42s51,8,64.51,29a40.17,40.17,0,0,1,5.06,10.72c3.27,11.61-.92,24-6.57,34.67s-12.87,20.65-16.33,32.2c-2.56,8.54-2.94,17.56-4.09,26.4a151.7,151.7,0,0,1-11.76,41.86"/><path class="cls-26" d="M1198.66,720.55a14.26,14.26,0,0,1,2.76-7.95c1.81-2.2,4.87-3.54,7.59-2.7s4.5,3.67,5,6.51-.18,5.72-.79,8.53l-2.78,12.65c-.49,2.24-1,4.69.08,6.74,1.3,2.55,4.61,3.52,7.43,3s5.28-2.16,7.68-3.72c11.61-7.58,23.9-14,36.17-20.46,3.79-2,8.31-4,12.15-2.12,4.25,2.06,5.17,8.09,3.18,12.38s-6,7.22-9.86,10l-18.16,12.92c13.11-4.58,21.18-19.19,34.18-24.08a8.37,8.37,0,0,1,5.68-.51c3.29,1.16,4.43,5.53,3.27,8.82s-3.92,5.7-6.57,8l-26.22,22.39c3.76,1.31,7.59-1.54,10.55-4.19l18.24-16.33c2.69-2.41,5.68-5,9.28-5.11a4.71,4.71,0,0,1,3.61,1.18c2.05,2.12.47,5.61-1.17,8.07l-14.86,22.24,18.83-2.16c2-.23,4.49-.27,5.59,1.44"/><path class="cls-27" d="M1172.63,659.46c53.9,20.64,113.95,18,170.84,8.28,15.92-2.72,31.8-6,47.12-11.11"/><path class="cls-28" d="M1302.57,484.94s2.31,35.63-5.42,50.11"/><path class="cls-29" d="M1253.89,547.3a79.76,79.76,0,0,1,40.37-12.51c10.76-.33,12.71,16,18.46,25.06a52.69,52.69,0,0,0,74.45,15.26c11.57-8,19.41-20.09,28.29-31s20.06-21.24,34-23.16c10.63-1.47,21.24,2.23,31.18,6.28l43.3,19.24c6.78,3.47,13.82,6.88,19,12.43,6.54,7,9.48,16.48,11.62,25.78a219.71,219.71,0,0,1,2.89,82.95c-2.23,14.21-5.86,28.2-7.39,42.5-1.31,12.23-.53,26,8.11,34.74,10.61,10.78,28.8,9.81,40.65,19.21"/><path class="cls-30" d="M36.29,843.5s81.69-40.1,216.84,0,282.18-10.13,406.93,46.17,176,23.82,176,23.82"/></svg>