<svg id="Layer_1" data-name="Layer 1" xmlns="http://www.w3.org/2000/svg" viewBox="0 0 1920 1080"><defs><style>.cls-1{fill:#f5f5f5;}</style></defs><path class="cls-1" d="M1598.66,546.91c-4.77-.53-21.18-.19-30.19-1.5s-22.91-3.94-28-9.5-5.39-10.41-9.21-21.48-16-14.34-27-18-20.75-7.21-29.48-24-3.67-59.46-1.79-81.49-13.34-39.49-14.59-41.29,4.78-5.93,6.45-8.48.32-7.07.15-11.14,2.35-15.27,4.61-27-3.86-17.28-9.15-26.56-13.78-31.37-19.6-38.4-10-8.13-23.34-21.28-39.64-23.36-61.8-23.17-30.14,6.23-50.56,17.43-34,33-41.26,45-15.75,41.95-19.63,49.55S1227.46,318,1225.15,326s.37,19.15,11.48,26.06,28.46,8.19,32,8.8,0,11.09-1.7,16.71-5.71,29.66.8,52.72,27.1,48.13,29.73,51.55.1,39.47-1.2,46.44-7.31,6.36-15.4,7.06-9.67,1.6-27.51,7.48-41,19.92-52.9,35.63-26,64.18-27.48,69.3-3.44,11.23-.19,12.6-3,2.14-8.5.38-5,2.92-14.08,4.51a14.75,14.75,0,0,0-8.49,5.29c-.61-18,2.12-83.43,0-106.92-2.2-25.24-11.56-97.46-37.72-121.08s-47-37.92-77.76-52.36S979.41,371,975.69,347.35s3.67-32.76,7.12-38.12,19.59-31.84,24.34-41.15,6.43-12.27,11.55-17.87,8.07-8,9.81-16.26,1.5-18,3.64-19,14-4.58,23.79-10.26,10.63-8.05,11.31-17.46,3.83-74.8-15.93-107.85S1009.67,17.9,946,24C919.23,27.49,889,53.82,881.52,70s-6.9,15.7-8.39,19.89-1.37,4.4-4.52,5.19-7.3,1.23-7.46,5.86,1.14,5.25,2.54,7.2A18.28,18.28,0,0,1,867,115c.92,3.34,2.85,10.2,5.75,13.52s1.41,5.15-1,10.11-4.57,9-5,16.42c0,0,.29,2.73,1.14,8.74s1,11.06-.06,9.6-3.35-14.8-13.57-18.27-8.8,24.44-8.32,34.71.58,20.92,4.94,26.25S864.1,229,863.92,235s.61,39.11-.31,46.57-2.2,23.87-15.86,38.11-15.11,10.19-19.6,12.85-14,5.46-18.69,6.6-70.31,14.44-101.87,39.34-38.13,26.16-58.76,53.87-68.15,94.38-80.59,122.49-42.83,72.22-43.09,81.48c0,0,55.77,32.25,82.55,43.58-5.48-2.25-9.52-3.81-11.85-4.52-25.7-7.91-124.81-67.38-141.94-79s-22-35.35-23.64-43.53-12.58-.06-21.37,25.37.45,59.91,2.7,68.66-3.38,11.07-15.11,28.32-9,46-4.5,59.72,26.16,28.59,34.6,41.08-.84,39.63-3.44,52.57,10,24.72,11.52,25.35c0,0,9.39,12,72.42,5.71s167.21,38.8,208.3,55,97.88,13.39,154.61-7.32,310.68-28.81,341.46-36.92c13.19-3.47,17.69-15,17.4-27.22,4.27,9.68,10.12,9.5,20.72,11.49,12.15,2.29,171.65-11.28,185.46-13s27.7-1.05,37.36-14,17.35-34.22,18.07-42.37,18,.67,16.14,5.87,2.9,4.55,9.7,4.62,17.76-7.72,24-13.59,5.19-23.28,5.36-29.61,0-26.33.18-32.32,3.2-25.11,6.09-42.85,2.71-27,2.28-69.73-24.25-56-31.86-61.42,12.18,1.44,27.32,4.7,37.6,2.16,42.58.9S1603.44,547.44,1598.66,546.91ZM687.77,641.72c-2.19,19.66-8.49,60.35-5.17,71-31-13.82-57.26-25.49-73.09-32.07,6.58,2.67,11.07,3.85,12,2.62,4.61-6.09,30.69-41,39.17-53s29.89-44.84,29.89-44.84S690.15,620.41,687.77,641.72Zm328.78,197.84c.47-7.18-4.82-32-1.37-85.06,3.66-56.18,8.49-98.09,8.49-98.09s.41,10,6,14.76,8.27,14.38,10.73,22.88,39.27,130.09,56.64,155c3.28,4.7,8.37,7.77,14.53,9.54C1087.15,855.59,1052,848.19,1016.55,839.56ZM1143.3,859.1c20.2-3.43,40-12.37,45.74-20.55C1177.15,858.76,1169.36,856.64,1143.3,859.1Zm46.75-22.29c3.88-8.66,3.6-19,0-32.28,4.45,7,7.56,9.2,10.42,9.2C1198.57,817.76,1196.78,824.89,1190.05,836.81Z"/></svg>